<?xml version="1.0" encoding="utf-8"?>
<svg data-name="Institutional Investors icon" xmlns="http://www.w3.org/2000/svg" width="72.517" height="96.031"><path data-name="Path 4937" d="M8.094 92.761V70.142l-.911-.2A9.231 9.231 0 010 61.003V39.635a9.177 9.177 0 019.165-9.167h16.562a9.178 9.178 0 019.167 9.167v.961c-.941.385-1.868.816-2.771 1.291v-2.252a6.4 6.4 0 00-6.4-6.4H9.165a6.4 6.4 0 00-6.395 6.4v21.366a6.4 6.4 0 006.395 6.393h1.674l.026 25.369z" fill="#2387c4"/><path data-name="Path 4938" d="M17.45 22.67a11.335 11.335 0 1111.328-11.335A11.348 11.348 0 0117.45 22.67zm0-19.9a8.564 8.564 0 108.558 8.564 8.573 8.573 0 00-8.558-8.563z" fill="#2387c4"/><path data-name="Path 4939" d="M47.184 96.034a25.319 25.319 0 1125.333-25.318 25.35 25.35 0 01-25.333 25.318zm0-47.867a22.548 22.548 0 1022.562 22.549 22.575 22.575 0 00-22.562-22.552z" fill="#2387c4"/><path data-name="Path 4940" d="M46.21 86.523v-3.785l-1.075-.108c-3.943-.4-7.226-1.864-8.78-3.915l-.336-.442 2.906-.713.142.121a11.736 11.736 0 005.791 2.169l1.353.183v-8.357l-1.006-.159a23.077 23.077 0 01-6.979-2.047l-.162-.088a5.5 5.5 0 01-2.7-4.3c0-3.271 4.109-6.059 9.764-6.627l1.077-.108v-3.688h2.713v3.706l1.06.121c3.525.4 6.485 1.655 8.122 3.434l.375.407-2.8.987-.157-.119a11.97 11.97 0 00-5.229-1.93l-1.375-.2v8.655l.984.179a27.215 27.215 0 016.569 1.859 6.21 6.21 0 011.443.9 4.407 4.407 0 01.332.336 4.561 4.561 0 011.217 3.01c0 3.2-3.99 5.977-9.486 6.6l-1.06.121v3.8zm2.713-6.509l1.377-.213c3.131-.476 6.455-1.974 6.455-3.807s-3.318-3.32-6.457-3.794l-1.375-.207zm-4.068-18.79c-3.79.506-6.765 2.193-6.776 3.844s2.978 3.344 6.778 3.848l1.353.183v-8.056z" fill="#2387c4"/></svg>